<?xml version="1.0" standalone="no"?>
<!DOCTYPE svg PUBLIC "-//W3C//DTD SVG 20010904//EN"
 "http://www.w3.org/TR/2001/REC-SVG-20010904/DTD/svg10.dtd">
<svg version="1.0" xmlns="http://www.w3.org/2000/svg"
 width="800.000000pt" height="800.000000pt" viewBox="0 0 800.000000 800.000000"
 preserveAspectRatio="xMidYMid meet">
<metadata>
Created by potrace 1.14, written by Peter Selinger 2001-2017
</metadata>
<g transform="translate(0.000000,800.000000) scale(0.100000,-0.100000)"
fill="#000000" stroke="none">
<path d="M3907 5725 c-26 -12 -57 -33 -68 -46 -78 -88 -68 -217 22 -283 42
-32 47 -49 25 -93 -8 -15 -27 -57 -42 -93 -41 -98 -62 -148 -100 -228 -19 -39
-34 -74 -34 -77 0 -8 -171 -349 -200 -400 -13 -22 -34 -60 -48 -85 -50 -89
-105 -175 -113 -178 -5 -2 -9 -8 -9 -14 0 -8 -56 -94 -70 -108 -3 -3 -21 -25
-40 -50 -131 -171 -302 -268 -485 -276 -89 -3 -135 6 -212 42 -62 29 -175 131
-193 174 -7 17 -16 30 -21 30 -5 0 -9 4 -9 10 0 5 -32 62 -70 127 -39 65 -77
129 -85 143 -42 72 -198 337 -206 350 -63 104 -81 150 -61 150 15 0 52 77 52
108 0 80 -43 147 -109 170 -36 13 -124 8 -129 -7 -2 -6 -10 -11 -17 -11 -25 0
-68 -71 -73 -121 -7 -76 21 -129 91 -168 32 -18 32 -18 31 -97 -3 -231 -19
-508 -39 -654 -2 -14 -6 -45 -9 -70 -6 -50 -8 -59 -29 -145 -27 -115 -75 -195
-117 -195 -36 0 -97 90 -145 216 -15 38 -31 78 -36 89 -5 11 -17 45 -25 75 -9
30 -24 87 -35 125 -11 39 -28 100 -37 136 l-18 66 28 16 c46 26 70 74 65 133
-4 63 -29 99 -84 120 -69 27 -137 7 -174 -52 -48 -78 -21 -169 62 -207 45 -20
49 -25 68 -87 22 -70 57 -200 65 -240 49 -249 63 -362 66 -540 1 -57 -3 -86
-19 -120 -36 -78 -27 -137 30 -192 39 -38 47 -96 19 -152 -26 -55 -19 -146 16
-214 11 -22 11 -66 -1 -119 -3 -12 -20 -31 -39 -42 -38 -24 -64 -59 -70 -93
-5 -30 26 -89 65 -126 28 -26 31 -34 32 -98 l2 -69 50 1 c28 1 100 5 160 8
124 8 198 12 400 21 77 3 178 8 225 10 201 9 545 20 980 31 310 7 1354 7 1690
0 476 -11 958 -27 1240 -41 63 -3 151 -8 195 -10 44 -2 131 -6 194 -10 78 -4
116 -3 121 4 3 6 5 37 4 68 -2 55 -1 59 41 104 48 51 61 84 51 125 -7 27 -42
67 -83 94 -34 23 -40 99 -14 178 28 82 28 172 1 197 -16 15 -19 26 -14 49 4
17 7 39 8 48 1 9 13 27 28 40 34 29 57 84 51 123 -2 17 -12 51 -23 76 -17 40
-19 64 -15 170 2 68 7 140 10 159 2 19 7 58 10 85 3 28 8 64 11 80 3 17 7 42
9 57 3 15 9 38 14 51 6 14 8 27 6 29 -2 2 7 46 21 98 59 226 64 238 97 246 34
7 96 70 99 99 8 111 -40 175 -136 179 -96 5 -171 -92 -141 -181 13 -39 60 -93
79 -93 11 0 8 -23 -15 -109 -100 -380 -175 -557 -255 -599 -39 -20 -85 38
-118 148 -15 49 -21 74 -40 180 -23 128 -43 402 -50 690 -3 109 0 130 16 130
20 0 82 56 94 87 28 65 11 145 -39 191 -98 91 -256 33 -277 -102 -8 -51 4 -85
43 -132 25 -30 25 -32 9 -55 -25 -36 -51 -81 -65 -111 -6 -16 -15 -28 -19 -28
-4 0 -8 -4 -8 -9 0 -5 -21 -45 -46 -88 -26 -43 -56 -94 -67 -113 -11 -19 -28
-48 -38 -65 -11 -16 -22 -37 -26 -45 -3 -8 -17 -32 -30 -53 -13 -21 -32 -53
-42 -70 -115 -202 -116 -202 -192 -277 -49 -48 -127 -98 -162 -104 -7 -1 -18
-5 -25 -10 -18 -11 -148 -14 -202 -4 -235 42 -389 182 -622 568 -74 121 -218
401 -288 555 -12 28 -35 77 -50 110 -73 157 -143 326 -138 329 78 47 113 100
117 176 7 151 -160 254 -302 185z"/>
</g>
</svg>
